<svg width="222" height="222" viewBox="0 0 222 222" fill="none" xmlns="http://www.w3.org/2000/svg">
<path d="M111.022 0.222656C172.18 0.222656 221.833 49.876 221.833 111.023C221.833 172.181 172.18 221.834 111.022 221.834C49.8755 221.834 0.222168 172.181 0.222168 111.023C0.222168 49.876 49.8755 0.222656 111.022 0.222656ZM111.022 16.8477C59.0414 16.8477 16.8472 59.0419 16.8472 111.023C16.8472 163.004 59.0414 205.209 111.022 205.209C163.003 205.209 205.208 163.004 205.208 111.023C205.208 59.0419 163.003 16.8477 111.022 16.8477ZM111.022 99.1414L141.136 69.0169C142.754 67.3987 144.893 66.5897 147.021 66.5897C151.499 66.5897 155.333 70.1917 155.333 74.9022C155.333 77.0412 154.524 79.1582 152.906 80.7874L122.793 110.901L153.017 141.136C154.646 142.765 155.455 144.893 155.455 147.021C155.455 151.754 151.587 155.334 147.143 155.334C145.015 155.334 142.887 154.525 141.269 152.907L111.022 122.671L80.7869 152.907C79.1688 154.525 77.0408 155.334 74.9128 155.334C70.4683 155.334 66.5892 151.754 66.5892 147.021C66.5892 144.893 67.3983 142.765 69.0275 141.136L99.2628 110.901L69.094 80.732C67.4758 79.1027 66.6667 76.9858 66.6667 74.8467C66.6667 70.1363 70.5016 66.5453 74.9792 66.5453C77.1072 66.5453 79.2463 67.3544 80.8645 68.9726L111.022 99.1414Z" fill="#070606"/>
</svg>
