<svg width="22" height="23" viewBox="0 0 22 23" fill="none" xmlns="http://www.w3.org/2000/svg">
<path d="M11.0022 22.3285C16.98 22.3285 21.8333 17.4752 21.8333 11.4973C21.8333 5.51949 16.98 0.667236 11.0022 0.667236C5.02542 0.667236 0.172089 5.51949 0.172089 11.4973C0.172089 17.4752 5.02542 22.3285 11.0022 22.3285ZM11.0022 20.7035C5.92134 20.7035 1.79709 16.5782 1.79709 11.4973C1.79709 6.41649 5.92134 2.29224 11.0022 2.29224C16.083 2.29224 20.2083 6.41649 20.2083 11.4973C20.2083 16.5782 16.083 20.7035 11.0022 20.7035ZM11.0022 13.6618C10.5537 13.6618 10.1897 13.2978 10.1897 12.8493V6.89099C10.1897 6.44249 10.5537 6.07849 11.0022 6.07849C11.4507 6.07849 11.8147 6.44249 11.8147 6.89099V12.8493C11.8147 13.2978 11.4507 13.6618 11.0022 13.6618ZM11 16.9118C11.598 16.9118 12.0833 16.4265 12.0833 15.8285C12.0833 15.2305 11.598 14.7452 11 14.7452C10.402 14.7452 9.91667 15.2305 9.91667 15.8285C9.91667 16.4265 10.402 16.9118 11 16.9118Z" fill="#EB5757"/>
</svg>
